<svg xmlns="http://www.w3.org/2000/svg" xmlns:xlink="http://www.w3.org/1999/xlink" width="89" zoomAndPan="magnify" viewBox="0 0 66.75 30.000001" height="40" preserveAspectRatio="xMidYMid meet" version="1.0"><defs><g/><clipPath id="e769b0fe9d"><path d="M 7.488281 12.960938 L 14.773438 12.960938 L 14.773438 23.160156 L 7.488281 23.160156 Z M 7.488281 12.960938 " clip-rule="nonzero"/></clipPath><clipPath id="046c13b81d"><path d="M 4.898438 4.882812 L 12.160156 4.882812 L 12.160156 12.140625 L 4.898438 12.140625 Z M 4.898438 4.882812 " clip-rule="nonzero"/></clipPath><clipPath id="4d68438eb9"><path d="M 8.53125 4.882812 C 6.523438 4.882812 4.898438 6.507812 4.898438 8.511719 C 4.898438 10.515625 6.523438 12.140625 8.53125 12.140625 C 10.535156 12.140625 12.160156 10.515625 12.160156 8.511719 C 12.160156 6.507812 10.535156 4.882812 8.53125 4.882812 " clip-rule="nonzero"/></clipPath></defs><g fill="#ffffff" fill-opacity="1"><g transform="translate(18.31432, 18.020827)"><g><path d="M 4.09375 0.140625 C 3.5 0.140625 2.96875 0.0625 2.5 -0.09375 C 2.039062 -0.257812 1.65625 -0.472656 1.34375 -0.734375 C 1.03125 -0.992188 0.796875 -1.28125 0.640625 -1.59375 L 1.234375 -2.328125 L 1.40625 -2.328125 C 1.976562 -1.347656 2.875 -0.859375 4.09375 -0.859375 C 4.789062 -0.859375 5.3125 -1.003906 5.65625 -1.296875 C 6 -1.585938 6.171875 -2 6.171875 -2.53125 C 6.171875 -2.832031 6.113281 -3.085938 6 -3.296875 C 5.894531 -3.515625 5.710938 -3.695312 5.453125 -3.84375 C 5.191406 -4 4.835938 -4.132812 4.390625 -4.25 L 3.296875 -4.515625 C 2.472656 -4.710938 1.867188 -5.023438 1.484375 -5.453125 C 1.097656 -5.878906 0.90625 -6.425781 0.90625 -7.09375 C 0.90625 -7.550781 1.023438 -7.960938 1.265625 -8.328125 C 1.503906 -8.691406 1.851562 -8.976562 2.3125 -9.1875 C 2.78125 -9.394531 3.332031 -9.5 3.96875 -9.5 C 4.675781 -9.5 5.269531 -9.394531 5.75 -9.1875 C 6.238281 -8.988281 6.625 -8.691406 6.90625 -8.296875 L 6.375 -7.578125 L 6.21875 -7.578125 C 5.945312 -7.910156 5.628906 -8.148438 5.265625 -8.296875 C 4.898438 -8.453125 4.46875 -8.53125 3.96875 -8.53125 C 3.320312 -8.53125 2.832031 -8.40625 2.5 -8.15625 C 2.164062 -7.90625 2 -7.554688 2 -7.109375 C 2 -6.691406 2.117188 -6.359375 2.359375 -6.109375 C 2.609375 -5.859375 3.019531 -5.664062 3.59375 -5.53125 L 4.71875 -5.25 C 5.625 -5.039062 6.28125 -4.710938 6.6875 -4.265625 C 7.09375 -3.828125 7.296875 -3.265625 7.296875 -2.578125 C 7.296875 -2.046875 7.175781 -1.578125 6.9375 -1.171875 C 6.707031 -0.765625 6.347656 -0.441406 5.859375 -0.203125 C 5.378906 0.0234375 4.789062 0.140625 4.09375 0.140625 Z M 4.09375 0.140625 "/></g></g></g><g fill="#ffffff" fill-opacity="1"><g transform="translate(26.330064, 18.020827)"><g><path d="M 4.78125 -1.125 L 5.109375 -0.375 C 4.941406 -0.207031 4.722656 -0.0820312 4.453125 0 C 4.179688 0.09375 3.890625 0.140625 3.578125 0.140625 C 2.222656 0.140625 1.546875 -0.539062 1.546875 -1.90625 L 1.546875 -6.203125 L 0.3125 -6.203125 L 0.3125 -7.0625 L 1.546875 -7.0625 L 1.546875 -8.5625 L 2.59375 -8.734375 L 2.59375 -7.0625 L 4.859375 -7.0625 L 4.859375 -6.203125 L 2.59375 -6.203125 L 2.59375 -2.015625 C 2.59375 -1.203125 2.945312 -0.796875 3.65625 -0.796875 C 4.03125 -0.796875 4.359375 -0.90625 4.640625 -1.125 Z M 4.78125 -1.125 "/></g></g></g><g fill="#ffffff" fill-opacity="1"><g transform="translate(31.703746, 18.020827)"><g><path d="M 4.046875 0.140625 C 3.378906 0.140625 2.800781 0 2.3125 -0.28125 C 1.820312 -0.5625 1.441406 -0.976562 1.171875 -1.53125 C 0.910156 -2.082031 0.78125 -2.75 0.78125 -3.53125 C 0.78125 -4.3125 0.910156 -4.972656 1.171875 -5.515625 C 1.441406 -6.066406 1.820312 -6.484375 2.3125 -6.765625 C 2.800781 -7.046875 3.378906 -7.1875 4.046875 -7.1875 C 4.710938 -7.1875 5.289062 -7.046875 5.78125 -6.765625 C 6.28125 -6.484375 6.660156 -6.066406 6.921875 -5.515625 C 7.191406 -4.972656 7.328125 -4.3125 7.328125 -3.53125 C 7.328125 -2.75 7.191406 -2.082031 6.921875 -1.53125 C 6.660156 -0.976562 6.28125 -0.5625 5.78125 -0.28125 C 5.289062 0 4.710938 0.140625 4.046875 0.140625 Z M 4.046875 -0.796875 C 4.753906 -0.796875 5.296875 -1.015625 5.671875 -1.453125 C 6.046875 -1.898438 6.234375 -2.59375 6.234375 -3.53125 C 6.234375 -4.457031 6.046875 -5.144531 5.671875 -5.59375 C 5.296875 -6.039062 4.753906 -6.265625 4.046875 -6.265625 C 3.347656 -6.265625 2.8125 -6.039062 2.4375 -5.59375 C 2.0625 -5.144531 1.875 -4.457031 1.875 -3.53125 C 1.875 -2.59375 2.0625 -1.898438 2.4375 -1.453125 C 2.8125 -1.015625 3.347656 -0.796875 4.046875 -0.796875 Z M 4.046875 -0.796875 "/></g></g></g><g fill="#ffffff" fill-opacity="1"><g transform="translate(39.802654, 18.020827)"><g><path d="M 1.234375 0 L 1.234375 -7.0625 L 2.21875 -7.0625 L 2.21875 -5.953125 L 2.359375 -5.921875 C 2.679688 -6.722656 3.300781 -7.125 4.21875 -7.125 C 4.695312 -7.125 5.054688 -7.035156 5.296875 -6.859375 L 5.03125 -5.984375 L 4.890625 -5.953125 C 4.628906 -6.085938 4.34375 -6.15625 4.03125 -6.15625 C 3.46875 -6.15625 3.03125 -5.941406 2.71875 -5.515625 C 2.414062 -5.097656 2.265625 -4.414062 2.265625 -3.46875 L 2.265625 0 Z M 1.234375 0 "/></g></g></g><g fill="#ffffff" fill-opacity="1"><g transform="translate(45.253103, 18.020827)"><g><path d="M 5.984375 -7.0625 L 7.046875 -7.0625 L 3.890625 1.109375 C 3.710938 1.554688 3.507812 1.914062 3.28125 2.1875 C 3.0625 2.46875 2.800781 2.671875 2.5 2.796875 C 2.195312 2.929688 1.835938 3 1.421875 3 C 1.179688 3 0.957031 2.976562 0.75 2.9375 C 0.539062 2.894531 0.363281 2.835938 0.21875 2.765625 L 0.40625 1.9375 L 0.515625 1.90625 C 0.617188 1.957031 0.75 2 0.90625 2.03125 C 1.0625 2.070312 1.21875 2.09375 1.375 2.09375 C 1.664062 2.09375 1.90625 2.050781 2.09375 1.96875 C 2.28125 1.894531 2.4375 1.769531 2.5625 1.59375 C 2.695312 1.414062 2.820312 1.171875 2.9375 0.859375 L 3.1875 0.171875 L 0.359375 -7.0625 L 1.484375 -7.0625 L 3.703125 -1.296875 L 3.828125 -1.296875 Z M 5.984375 -7.0625 "/></g></g></g><g fill="#ffffff" fill-opacity="1"><g transform="translate(52.693095, 18.020827)"><g><path d="M 1.578125 0 L 0.375 0 L 3.296875 -4.8125 L 0.5 -9.359375 L 1.734375 -9.359375 L 4.09375 -5.5625 L 4.25 -5.5625 L 6.625 -9.359375 L 7.8125 -9.359375 L 5.03125 -4.8125 L 7.9375 0 L 6.71875 0 L 4.21875 -4.046875 L 4.0625 -4.046875 Z M 1.578125 0 "/></g></g></g><g clip-path="url(#e769b0fe9d)"><path fill="#ffffff" d="M 11.132812 12.960938 C 10.652344 12.960938 10.1875 13.058594 9.742188 13.25 C 9.300781 13.445312 8.90625 13.71875 8.566406 14.078125 C 8.226562 14.433594 7.964844 14.84375 7.78125 15.3125 C 7.59375 15.777344 7.503906 16.265625 7.503906 16.769531 C 7.503906 17.273438 7.59375 17.761719 7.78125 18.226562 C 7.964844 18.695312 8.226562 19.105469 8.566406 19.464844 C 8.90625 19.820312 9.300781 20.09375 9.742188 20.289062 C 10.1875 20.480469 10.652344 20.578125 11.132812 20.578125 C 11.273438 20.578125 11.417969 20.566406 11.558594 20.546875 C 11.308594 21.710938 10.804688 22.449219 10.804688 22.449219 C 10.746094 22.535156 10.722656 22.628906 10.730469 22.734375 C 10.738281 22.835938 10.78125 22.925781 10.851562 22.996094 C 10.921875 23.070312 11.007812 23.109375 11.105469 23.117188 C 11.207031 23.125 11.292969 23.097656 11.375 23.035156 C 11.375 23.035156 14.496094 20.628906 14.738281 17.1875 C 14.753906 17.046875 14.761719 16.910156 14.761719 16.769531 C 14.761719 16.753906 14.761719 16.742188 14.757812 16.726562 C 14.753906 16.226562 14.660156 15.746094 14.472656 15.285156 C 14.285156 14.820312 14.023438 14.414062 13.683594 14.0625 C 13.34375 13.710938 12.953125 13.4375 12.511719 13.246094 C 12.070312 13.054688 11.609375 12.960938 11.132812 12.960938 Z M 11.132812 12.960938 " fill-opacity="1" fill-rule="nonzero"/></g><g clip-path="url(#046c13b81d)"><g clip-path="url(#4d68438eb9)"><path fill="#ffffff" d="M 4.898438 4.882812 L 12.160156 4.882812 L 12.160156 12.140625 L 4.898438 12.140625 Z M 4.898438 4.882812 " fill-opacity="1" fill-rule="nonzero"/></g></g></svg>